<svg>
    <defs>
        <svg id="icon-close" xmlns="http://www.w3.org/2000/svg" width="18" height="18" viewBox="0 0 18 18">
            <path d="M10.2533 9.00001L17.6221 1.63112C17.7678 1.46107 17.8439 1.24234 17.8352 1.01863C17.8266 0.794916 17.7338 0.582704 17.5755 0.424397C17.4172 0.266091 17.205 0.173351 16.9813 0.16471C16.7576 0.156069 16.5389 0.232163 16.3688 0.377787L8.99992 7.74668L1.63103 0.368898C1.46365 0.201517 1.23663 0.107483 0.999922 0.107483C0.763209 0.107483 0.536192 0.201517 0.368811 0.368898C0.20143 0.536279 0.107396 0.763296 0.107396 1.00001C0.107396 1.23672 0.20143 1.46374 0.368811 1.63112L7.74659 9.00001L0.368811 16.3689C0.27576 16.4486 0.200187 16.5466 0.146833 16.6569C0.0934787 16.7672 0.0634963 16.8873 0.0587679 17.0097C0.0540394 17.1322 0.0746665 17.2542 0.119355 17.3683C0.164044 17.4824 0.231829 17.586 0.318455 17.6726C0.405082 17.7592 0.508679 17.827 0.622746 17.8717C0.736813 17.9164 0.858886 17.937 0.981303 17.9323C1.10372 17.9275 1.22384 17.8976 1.33412 17.8442C1.4444 17.7909 1.54246 17.7153 1.62214 17.6222L8.99992 10.2533L16.3688 17.6222C16.5389 17.7679 16.7576 17.8439 16.9813 17.8353C17.205 17.8267 17.4172 17.7339 17.5755 17.5756C17.7338 17.4173 17.8266 17.2051 17.8352 16.9814C17.8439 16.7577 17.7678 16.5389 17.6221 16.3689L10.2533 9.00001Z"/>
        </svg>
        <symbol id="icon-search" width="24" height="25" viewBox="0 0 24 25" fill="none" xmlns="http://www.w3.org/2000/svg">
            <path d="M10 18.5C11.775 18.4996 13.4988 17.9054 14.897 16.812L19.293 21.208L20.707 19.794L16.311 15.398C17.405 13.9997 17.9996 12.2754 18 10.5C18 6.089 14.411 2.5 10 2.5C5.589 2.5 2 6.089 2 10.5C2 14.911 5.589 18.5 10 18.5ZM10 4.5C13.309 4.5 16 7.191 16 10.5C16 13.809 13.309 16.5 10 16.5C6.691 16.5 4 13.809 4 10.5C4 7.191 6.691 4.5 10 4.5Z" fill="#FD5103"/>
        </symbol>
        <symbol id="icon-arrow" viewBox="0 0 32 32">
            <path d="M17.562 16l-6.6-6.6 1.885-1.885 8.485 8.485-8.485 8.485-1.885-1.885 6.6-6.6z"></path>
        </symbol>
        <symbol id="icon-full-heart" width="21" height="19" viewBox="0 0 21 19" fill="none" xmlns="http://www.w3.org/2000/svg">
            <path d="M10.5 19L8.9775 17.6332C3.57 12.7978 0 9.60872 0 5.69482C0 2.50572 2.541 0 5.775 0C7.602 0 9.3555 0.838692 10.5 2.16403C11.6445 0.838692 13.398 0 15.225 0C18.459 0 21 2.50572 21 5.69482C21 9.60872 17.43 12.7978 12.0225 17.6436L10.5 19Z" fill="#FD5103"/>
        </symbol>
        <symbol id="icon-white-heart" width="21" height="19" viewBox="0 0 21 19" fill="none" xmlns="http://www.w3.org/2000/svg">
            <path d="M10.5 19L8.9775 17.6332C3.57 12.7978 0 9.60872 0 5.69482C0 2.50572 2.541 0 5.775 0C7.602 0 9.3555 0.838692 10.5 2.16403C11.6445 0.838692 13.398 0 15.225 0C18.459 0 21 2.50572 21 5.69482C21 9.60872 17.43 12.7978 12.0225 17.6436L10.5 19Z" fill="#FD5103"/>
            <path d="M10.5 17L9.2675 15.921C4.89 12.1035 2 9.58583 2 6.49591C2 3.9782 4.057 2 6.675 2C8.154 2 9.5735 2.66213 10.5 3.70845C11.4265 2.66213 12.846 2 14.325 2C16.943 2 19 3.9782 19 6.49591C19 9.58583 16.11 12.1035 11.7325 15.9292L10.5 17Z" fill="#FCFCFC"/>
        </symbol>
        <symbol id="icon-black-heart" width="21" height="19" viewBox="0 0 21 19" fill="none" xmlns="http://www.w3.org/2000/svg">
            <path d="M10.5 19L8.9775 17.6332C3.57 12.7978 0 9.60872 0 5.69482C0 2.50572 2.541 0 5.775 0C7.602 0 9.3555 0.838692 10.5 2.16403C11.6445 0.838692 13.398 0 15.225 0C18.459 0 21 2.50572 21 5.69482C21 9.60872 17.43 12.7978 12.0225 17.6436L10.5 19Z" fill="#FD5103"/>
            <path d="M10.5 17L9.2675 15.921C4.89 12.1035 2 9.58583 2 6.49591C2 3.9782 4.057 2 6.675 2C8.154 2 9.5735 2.66213 10.5 3.70845C11.4265 2.66213 12.846 2 14.325 2C16.943 2 19 3.9782 19 6.49591C19 9.58583 16.11 12.1035 11.7325 15.9292L10.5 17Z" fill="#202025"/>
        </symbol>
        <symbol id="icon-menu" viewBox="0 0 30 16" xmlns="http://www.w3.org/2000/svg">
            <rect width="30" height="2" rx="1"/>
            <rect y="7" width="30" height="2" rx="1"/>
            <rect y="14" width="30" height="2" rx="1"/>
        </symbol>
    </defs>
</svg>
